<svg xmlns="http://www.w3.org/2000/svg" viewBox="0 0 885.25 47.52"><g data-name="Слой 2"><path d="M29.79 47.49c15.54-.93 15.52-16.56 28-17.89 9.47-1 14.64 8.72 23.21 8.22 8-.47 11.13-9.59 21.24-9.7 11.26-.12 15.76 7.82 25.49 6.35 13.61-2 13.54-12.55 26.66-13 10.82-.36 13.61 4.86 22 5.3 8.19.43 13-4.86 20.47-4.95 12.07-.14 12.89 7 21.51 8.64s12.08-4.73 21.08-4.76c13.09 0 14.26 13.61 26.24 15.57 11.39 1.86 16.43-11.14 29.4-10.67v.05c13.08.57 16.2 16.38 29.79 15.57 15.54-.93 15.52-16.56 28-17.89 9.47-1 14.64 8.72 23.21 8.22 8-.47 11.13-9.59 21.24-9.7 11.28-.12 15.73 7.82 25.51 6.35 13.61-2 13.54-12.55 26.66-13 10.82-.36 13.61 4.86 22 5.3 8.19.43 13-4.86 20.47-4.95 12.07-.14 12.89 7 21.51 8.64s12.08-4.73 21.08-4.76c13.09 0 14.26 13.61 26.24 15.57 11.39 1.86 16.43-11.14 29.4-10.67s16.17 16.42 29.8 15.61c15.54-.93 15.52-16.56 28-17.89 9.47-1 14.64 8.72 23.21 8.22 8-.47 11.13-9.59 21.24-9.7 11.28-.12 15.73 7.82 25.51 6.35 13.61-2 13.54-12.55 26.66-13 10.82-.36 13.61 4.86 22 5.3 8.19.43 13-4.86 20.47-4.95 12.07-.14 12.89 7 21.51 8.64s12.08-4.73 21.08-4.76c13.09 0 14.26 13.61 26.24 15.57 11.39 1.86 16.43-11.14 29.4-10.67V0H0v31.93c13.08.57 16.2 16.37 29.79 15.56z" fill="#fff" fill-rule="evenodd" data-name="Ñëîé 1"/></g></svg>